<?xml version="1.0" encoding="UTF-8" standalone="no"?>
<!DOCTYPE svg PUBLIC "-//W3C//DTD SVG 1.1//EN" "http://www.w3.org/Graphics/SVG/1.1/DTD/svg11.dtd">
<svg version="1.1" xmlns="http://www.w3.org/2000/svg" xmlns:xlink="http://www.w3.org/1999/xlink" preserveAspectRatio="xMidYMid meet" viewBox="0 0 640 640" width="640" height="640"><defs><path d="M400 240L560 240C613.33 240.8 640 267.47 640 320C640 372.53 613.33 399.2 560 400L400 400L400 560C400.67 613.47 374 640.13 320 640C266 639.87 239.33 613.2 240 560L240 400L80 400C26 398.13 -0.67 371.47 0 320C0.67 268.53 27.33 241.87 80 240L240 240L240 84.2C242 28.2 268.67 0.13 320 0C371.33 -0.13 398 26.53 400 80L400 240Z" id="b2FjWV5CC"></path></defs><g><g><g><g><use xlink:href="#b2FjWV5CC" opacity="1" fill-opacity="0" stroke="#000000" stroke-width="1" stroke-opacity="1"></use></g></g></g></g></svg>