<?xml version="1.0" encoding="UTF-8" standalone="no"?>
<!DOCTYPE svg PUBLIC "-//W3C//DTD SVG 1.1//EN" "http://www.w3.org/Graphics/SVG/1.1/DTD/svg11.dtd">
<svg version="1.1" xmlns="http://www.w3.org/2000/svg" xmlns:xlink="http://www.w3.org/1999/xlink" preserveAspectRatio="xMidYMid meet" viewBox="0 0 640 640" width="640" height="640"><defs><path d="M241.95 56.45L243.08 51.2L244.47 46.21L246.12 41.47L248.03 36.99L250.19 32.77L252.62 28.8L255.3 25.09L258.24 21.63L261.44 18.43L264.9 15.49L268.62 12.8L272.59 10.37L276.83 8.19L281.32 6.27L286.07 4.61L291.08 3.2L296.35 2.05L301.88 1.15L307.66 0.51L313.71 0.13L320.01 0L323.93 0.04L327.75 0.19L331.47 0.44L335.1 0.79L338.63 1.24L342.05 1.8L345.38 2.47L348.61 3.23L351.75 4.1L354.78 5.08L357.71 6.15L360.55 7.33L363.29 8.62L365.93 10.01L368.47 11.5L370.91 13.09L373.26 14.79L375.51 16.59L377.65 18.5L379.7 20.51L381.65 22.62L383.5 24.84L385.26 27.16L386.91 29.58L388.47 32.11L389.93 34.74L391.29 37.48L392.55 40.31L393.71 43.26L394.78 46.3L395.74 49.45L396.61 52.7L397.38 56.06L398.05 59.52L398.62 63.08L399.1 66.75L399.47 70.52L399.75 74.39L399.93 78.37L400.01 82.45L400.04 86.58L400.07 90.69L400.09 94.8L400.12 98.9L400.14 102.99L400.16 107.07L400.18 111.14L400.2 115.2L400.22 119.25L400.24 123.29L400.25 127.32L400.26 131.34L400.28 135.35L400.29 139.36L400.29 143.35L400.3 147.33L400.31 151.3L400.31 155.27L400.31 159.22L400.31 163.16L400.31 167.1L400.31 171.02L400.31 174.94L400.3 178.84L400.29 182.74L400.29 186.62L400.28 190.5L400.26 194.36L400.25 198.22L400.24 202.07L400.22 205.9L400.2 209.73L400.18 213.55L400.16 217.36L400.14 221.15L400.12 224.94L400.09 228.72L400.07 232.49L400.04 236.25L400.01 240L560 240L563.93 240.01L567.76 240.12L571.5 240.34L575.13 240.65L578.66 241.07L582.1 241.59L585.43 242.21L588.67 242.94L591.81 243.77L594.85 244.69L597.79 245.72L600.63 246.86L603.37 248.09L606.02 249.43L608.56 250.87L611 252.41L613.35 254.05L615.6 255.8L617.75 257.64L619.8 259.59L621.75 261.64L623.6 263.8L625.35 266.05L627 268.41L628.56 270.87L630.01 273.43L631.37 276.09L632.63 278.86L633.79 281.72L634.85 284.69L635.81 287.77L636.67 290.94L637.43 294.21L638.1 297.59L638.66 301.07L639.13 304.65L639.49 308.34L639.76 312.12L639.93 316.01L640 320L639.97 323.99L639.84 327.88L639.61 331.66L639.27 335.35L638.84 338.93L638.3 342.41L637.67 345.79L636.93 349.06L636.09 352.23L635.15 355.31L634.11 358.28L632.97 361.14L631.73 363.91L630.39 366.57L628.94 369.13L627.4 371.59L625.75 373.95L624 376.2L622.15 378.36L620.2 380.41L618.15 382.36L616 384.2L613.75 385.95L611.4 387.59L608.94 389.13L606.39 390.57L603.73 391.91L600.97 393.14L598.11 394.28L595.15 395.31L592.09 396.23L588.93 397.06L585.67 397.79L582.31 398.41L578.84 398.93L575.28 399.35L571.61 399.66L567.84 399.88L563.97 399.99L560 400L400.01 400L400.01 560L399.94 563.97L399.77 567.84L399.5 571.61L399.13 575.27L398.67 578.84L398.1 582.3L397.44 585.67L396.68 588.93L395.82 592.09L394.85 595.15L393.79 598.11L392.64 600.97L391.38 603.73L390.02 606.39L388.57 608.94L387.01 611.4L385.36 613.75L383.61 616L381.75 618.15L379.8 620.2L377.75 622.15L375.61 624L373.36 625.75L371.01 627.4L368.57 628.94L366.02 630.39L363.38 631.73L360.64 632.97L357.8 634.11L354.86 635.15L351.82 636.09L348.68 636.93L345.44 637.67L342.11 638.3L338.67 638.84L335.14 639.27L331.5 639.61L327.77 639.84L323.94 639.97L320.01 640L316.08 639.93L312.25 639.76L308.52 639.49L304.88 639.13L301.35 638.66L297.91 638.1L294.58 637.43L291.34 636.67L288.2 635.81L285.16 634.85L282.22 633.79L279.38 632.63L276.64 631.37L274 630.01L271.45 628.56L269.01 627L266.66 625.35L264.41 623.6L262.27 621.75L260.22 619.8L258.27 617.75L256.41 615.6L254.66 613.35L253.01 611L251.45 608.56L250 606.01L248.64 603.37L247.38 600.63L246.22 597.79L245.17 594.85L244.2 591.81L243.34 588.67L242.58 585.43L241.92 582.1L241.35 578.66L240.89 575.13L240.52 571.49L240.25 567.76L240.08 563.93L240.01 560L240.01 400L80.02 400L76.14 399.77L72.35 399.45L68.67 399.04L65.07 398.54L61.58 397.95L58.18 397.26L54.88 396.49L51.68 395.62L48.57 394.67L45.55 393.62L42.64 392.49L39.82 391.26L37.1 389.94L34.47 388.53L31.94 387.03L29.5 385.44L27.17 383.75L24.93 381.98L22.78 380.12L20.73 378.16L18.78 376.12L16.93 373.98L15.17 371.75L13.5 369.44L11.94 367.03L10.47 364.53L9.1 361.94L7.82 359.26L6.64 356.49L5.56 353.62L4.57 350.67L3.68 347.62L2.88 344.49L2.18 341.26L1.58 337.95L1.08 334.54L0.67 331.04L0.36 327.45L0.14 323.77L0.02 320L0 316.23L0.08 312.55L0.27 308.96L0.56 305.46L0.96 302.05L1.46 298.74L2.06 295.51L2.76 292.38L3.57 289.33L4.48 286.38L5.5 283.51L6.62 280.74L7.84 278.06L9.17 275.47L10.6 272.97L12.13 270.56L13.77 268.25L15.51 266.02L17.36 263.88L19.3 261.84L21.36 259.88L23.51 258.02L25.77 256.25L28.13 254.56L30.6 252.97L33.17 251.47L35.84 250.06L38.62 248.74L41.5 247.51L44.48 246.38L47.57 245.33L50.76 244.38L54.06 243.51L57.45 242.74L60.96 242.05L64.56 241.46L68.27 240.96L72.08 240.55L76 240.23L80.02 240L240.01 240L240.01 80L240.11 73.73L240.46 67.71L241.08 61.95L241.08 61.95L241.95 56.45Z" id="a4Ky1Exvtj"></path></defs><g><g><g><g><use xlink:href="#a4Ky1Exvtj" opacity="1" fill-opacity="0" stroke="#000000" stroke-width="1" stroke-opacity="1"></use></g></g></g></g></svg>