<?xml version="1.0" encoding="utf-8"?>
<!DOCTYPE svg PUBLIC "-//W3C//DTD SVG 1.1//EN" "http://www.w3.org/Graphics/SVG/1.1/DTD/svg11.dtd">

<svg version="1.1" xmlns="http://www.w3.org/2000/svg" xmlns:xlink="http://www.w3.org/1999/xlink" x="0px" y="0px" xml:space="preserve">
  <g>
    <path d="m109.54 245.44c-28.156-3.584-53.724-15.987-73.289-35.552-16.579-16.579-27.517-36.421-33.521-60.809-1.9271-7.8274-2.0237-11.026-2.3708-78.48l-0.36178-70.32h30.74l0.30781 68.88c0.30002 67.137 0.36018 69.066 2.3769 76.221 9.7399 34.555 34.848 59.181 69.05 67.722 9.1302 2.2801 31.886 2.2801 41.017 0 34.202-8.5414 59.31-33.167 69.05-67.722 2.0167-7.1548 2.0768-9.084 2.3769-76.221l0.30781-68.88h30.74l-0.36177 70.32c-0.34704 67.454-0.44368 70.653-2.3708 78.48-11.944 48.514-46.84 83.355-94.33 94.182-8.0144 1.8271-31.788 3.1439-39.36 2.1801z" fill="#fef501" stroke-width=".96"/>
  </g>
</svg>